<svg xmlns="http://www.w3.org/2000/svg"
     xmlns:xlink="http://www.w3.org/1999/xlink"
     version="1.1" x="0px" y="0px"
     viewBox="0 0 100 125"
     style="enable-background:new 0 0 100 100; background-color: transparent;"
     xml:space="preserve">
  <path d="M7.6,60.68c-0.79-0.78-0.79-2.04,0-2.82c0.78-0.79,2.04-0.79,2.82,0c2.45,2.45,6.44,2.44,8.89,0c3.25-3.25,8.14-3.87,12.01-1.86c-0.2,1.56-0.29,3.13-0.27,4.7c-0.01,0-0.02-0.01-0.03-0.02c-2.45-2.44-6.43-2.45-8.88,0C18.13,64.69,11.61,64.69,7.6,60.68z M19.31,47.86c-2.45,2.44-6.44,2.45-8.89,0c-0.78-0.78-2.04-0.79-2.82,0c-0.79,0.78-0.79,2.04,0,2.82c4.01,4.01,10.53,4.01,14.54,0c2.45-2.45,6.43-2.44,8.88,0c0.37,0.36,0.75,0.68,1.15,0.98c0.1-0.38,0.2-0.76,0.31-1.13c0.03-0.24,0.09-0.47,0.21-0.7c0.01-0.01,0.02-0.03,0.03-0.04c0.24-0.75,0.51-1.49,0.8-2.23C29.5,43.86,23.22,43.95,19.31,47.86z M32.86,71.54c-0.6-1.78-1.04-3.6-1.34-5.43c-3.9-2.13-8.91-1.56-12.21,1.75c-2.45,2.44-6.44,2.45-8.89,0c-0.78-0.79-2.04-0.79-2.82,0c-0.79,0.78-0.79,2.04,0,2.82c4.01,4.01,10.53,4.01,14.54,0c2.45-2.45,6.43-2.45,8.88,0c0.65,0.65,1.37,1.18,2.12,1.62c-0.08-0.23-0.17-0.45-0.25-0.67C32.88,71.6,32.87,71.57,32.86,71.54z M87.41,42.82L64.01,9.73l-23.4,33.09c-1.5,2.11-2.68,4.38-3.58,6.74c2.04,0.42,4.18-0.17,5.71-1.7c1.21-1.22,2.68-2.09,4.27-2.58c0.96-0.29,1.97-0.44,3-0.44c2.75,0,5.33,1.07,7.27,3.02c2.45,2.45,6.44,2.44,8.89,0c0.78-0.79,2.04-0.79,2.83,0c0.78,0.78,0.78,2.04,0,2.82c-4.01,4.01-10.54,4.01-14.55,0c-1.18-1.18-2.76-1.84-4.44-1.84s-3.26,0.66-4.44,1.84c-1.99,1.99-4.61,3.03-7.26,3.03c-0.82,0-1.65-0.1-2.45-0.3c-0.42,1.77-0.68,3.57-0.77,5.38c2.43,1.45,5.61,1.11,7.65-0.93c4.01-4.01,10.53-4.01,14.54,0c2.45,2.45,6.44,2.44,8.89,0c0.78-0.79,2.04-0.79,2.83,0c0.78,0.78,0.78,2.04,0,2.82c-2.01,2.01-4.64,3.01-7.28,3.01c-2.63,0-5.26-1-7.27-3.01c-2.45-2.45-6.43-2.45-8.88,0c-2.77,2.77-6.82,3.65-10.4,2.52c0.19,2.08,0.6,4.16,1.22,6.19c2.21,0.71,4.68,0.14,6.35-1.53c4.01-4.01,10.53-4.01,14.54,0c2.45,2.45,6.44,2.44,8.89,0c0.78-0.79,2.04-0.79,2.83,0c0.78,0.78,0.78,2.04,0,2.82c-4.01,4.01-10.54,4.01-14.55,0c-2.45-2.45-6.43-2.45-8.88,0c-1.97,1.97-4.61,3.01-7.29,3.01c-0.08,0-0.16-0.01-0.23-0.01c0.05,0.12,0.1,0.25,0.16,0.37c4.77,9.7,13.9,15.76,24.42,16.19c0.92,0.04,1.84,0.04,2.75,0c10.53-0.43,19.66-6.49,24.43-16.19C94.79,63.92,93.87,51.95,87.41,42.82z"
        fill="#fff"/>
</svg>
