<svg xmlns="http://www.w3.org/2000/svg" data-name="Layer 1" viewBox="0 0 512 640" x="0px"  style="enable-background:new 0 0 100 100; background-color: transparent;" y="0px">
<path d="M483.10449,110.97412a7.49814,7.49814,0,0,0-7.55664-3.10742,96.55022,96.55022,0,0,1-38.48584-.04395c-22.30224-4.72216-36.59277-14.52392-60.26806-30.76367-12.48591-8.56451-27.51929-18.87115-47.46564-31.00464-.02564-.01519-.05054-.03143-.07636-.04632-4.09265-2.48895-8.37567-5.04871-12.90381-7.69269-47.85449-27.94434-104.312-27.95264-167.80126-.02734a7.48978,7.48978,0,0,0-2.43982,1.72821,7.48917,7.48917,0,0,0-1.22083,1.3255L84.99951,125.21021V115.5a7.50006,7.50006,0,0,0-7.5-7.5h-6V64.07275a36,36,0,1,0-45,0V108h-6a7.50006,7.50006,0,0,0-7.5,7.5v62a7.50006,7.50006,0,0,0,7.5,7.5h6V504.5a7.50006,7.50006,0,0,0,7.5,7.5h30a7.50006,7.50006,0,0,0,7.5-7.5V185h6a7.50006,7.50006,0,0,0,7.5-7.5V167.498l60.98487,64.63922a7.487,7.487,0,0,0,10.45294.43567c41.76568-25.92279,83.44751-36.04444,123.90985-30.07386,16.57178,2.44629,27.875,6.80762,39.84228,11.42432,10.334,3.9873,21.01953,8.10986,35.625,11.31885,25.46045,5.59326,52.73047,5.76416,81.05371.51074a283.47213,283.47213,0,0,0,43.85694-12.0332,7.50014,7.50014,0,0,0,3.75-2.96582,89.47246,89.47246,0,0,0-1.37061-99.77979ZM56.49951,497h-15V185h15Zm13.5-327h-42V123h42Zm-28.5-62V71.20862a35.93487,35.93487,0,0,0,15,0V108Zm7.5-51a21,21,0,1,1,21-21A21.02359,21.02359,0,0,1,48.99951,57Zm38.18756,90.95874,35.75-50.0661a182.42064,182.42064,0,0,0,4.26874,92.48291Zm64.02759,62.29346a167.97911,167.97911,0,0,1,.06305-148.62848A183.63729,183.63729,0,0,1,167,138.39648,183.91108,183.91108,0,0,1,151.21466,210.2522Zm89.79315-89.10474a181.11788,181.11788,0,0,1-16.71167,67.88489,211.454,211.454,0,0,0-56.19995,19.72595A198.54939,198.54939,0,0,0,181.999,138.60352,198.99365,198.99365,0,0,0,161.918,48.91162q31.94477-13.018,61.0003-15.75055A183.80973,183.80973,0,0,1,241.00781,121.14746ZM331.00244,131.293a202.94878,202.94878,0,0,1-12.86816,65.79724,167.411,167.411,0,0,0-35.59668-9.43005,170.62892,170.62892,0,0,0-24.96192-1.83448q-7.913,0-15.85778.74213a195.5744,195.5744,0,0,0,14.27331-64.71527,198.43278,198.43278,0,0,0-16.8916-89.41742,137.525,137.525,0,0,1,69.68506,18.83343c3.66742,2.14142,7.16894,4.22632,10.54608,6.26618A202.88068,202.88068,0,0,1,331.00244,131.293Zm68.60419,83.24432a175.59461,175.59461,0,0,1-40.57343-3.94549,189.74711,189.74711,0,0,1-26.88415-8.15692A218.60025,218.60025,0,0,0,338.79291,69.67c11.4953,7.39875,21.09192,13.98029,29.51617,19.75873,11.45612,7.85809,21.08234,14.44464,30.69263,19.79016a205.479,205.479,0,0,1,.60492,105.31842Zm73.61456-14.07245a266.3507,266.3507,0,0,1-39.08935,10.54q-9.5312,1.76806-18.86341,2.6518a220.0671,220.0671,0,0,0,1.11713-96.26874,119.2716,119.2716,0,0,0,17.569,5.10962,111.06434,111.06434,0,0,0,39.34521.95312,74.40245,74.40245,0,0,1-.07861,77.01416Z" fill="#fff"/></svg>