<svg xmlns="http://www.w3.org/2000/svg" version="1.1" viewBox="-5.0 -10.0 110.0 135.0" style="background:transparent">
 <g fill="#fff">
  <path d="m50 50.602c-0.60156 0-1.1016-0.10156-1.6992-0.30078l-3.6016 39.699h10.602l-3.6992-39.699c-0.5 0.19922-1 0.30078-1.6016 0.30078z"/>
  <path d="m50 38.801c0.80078 0 1.6016 0.19922 2.3008 0.5l1.6992-3-2.3008-26.301h-3.3984l-2.3984 26.301 1.6992 3c0.79688-0.30078 1.5977-0.5 2.3984-0.5z"/>
  <path d="m50 48.801c2.3008 0 4.1016-1.8008 4.1016-4.1016s-1.8008-4.1016-4.1016-4.1016c-0.80078 0-1.5 0.19922-2.1992 0.60156l-0.10156 0.10156h-0.10156c-1.1016 0.69922-1.8008 2-1.8008 3.3984 0.10156 2.3008 1.9023 4.1016 4.2031 4.1016z"/>
  <path d="m55.301 52.398 24 11.102 1.6992-2.8984-21.699-15.203h-3.5c-0.19922 1.6016-1.1016 3.1016-2.3008 4z"/>
  <path d="m40.699 45.398-21.598 15.203 1.6992 2.8984 24-11.102 1.8008-3c-1.3008-0.89844-2.1016-2.3984-2.3008-4z"/>
 </g>
</svg>